<?xml version="1.0" standalone="no"?>
<!DOCTYPE svg PUBLIC "-//W3C//DTD SVG 20010904//EN"
 "http://www.w3.org/TR/2001/REC-SVG-20010904/DTD/svg10.dtd">
<svg version="1.0" xmlns="http://www.w3.org/2000/svg"
 width="1024.000000pt" height="1024.000000pt" viewBox="0 0 1024.000000 1024.000000"
 preserveAspectRatio="xMidYMid meet">

<g transform="translate(0.000000,1024.000000) scale(0.100000,-0.100000)"
fill="#000000" stroke="none">
<path d="M0 5120 l0 -5120 5120 0 5120 0 0 5120 0 5120 -5120 0 -5120 0 0
-5120z m5189 4117 c115 -76 104 -267 -18 -323 l-41 -19 3 -125 2 -125 45 -2
c252 -14 408 -36 625 -88 551 -132 1075 -426 1475 -825 119 -119 315 -349 305
-359 -3 -2 4 -10 15 -18 28 -20 43 -50 24 -50 -7 0 -14 7 -14 14 0 10 -6 12
-20 8 -21 -7 -29 11 -7 18 6 2 4 3 -5 2 -20 -3 -23 6 -7 22 8 8 8 13 0 17 -6
4 -12 1 -12 -6 -1 -7 -3 -23 -4 -36 -1 -12 5 -27 14 -33 14 -9 14 -10 -2 -5
-10 3 -23 6 -28 6 -4 0 -6 8 -3 18 5 15 4 16 -8 1 -7 -9 -29 -20 -48 -24 -19
-4 -40 -12 -47 -17 -7 -6 -14 -5 -18 2 -9 14 4 32 17 24 7 -5 8 -2 3 6 -6 10
-4 12 11 6 15 -6 16 -4 7 5 -9 9 -18 7 -38 -9 -14 -11 -26 -23 -25 -27 2 -12
-28 -34 -36 -27 -5 4 -2 -1 5 -10 11 -14 11 -21 1 -33 -10 -12 -6 -16 22 -24
29 -8 30 -9 8 -10 -14 -1 -20 -4 -14 -9 6 -4 13 -11 15 -17 2 -5 35 -57 73
-115 227 -344 391 -837 426 -1279 5 -74 10 -141 10 -148 0 -11 49 -13 251 -11
l251 3 19 49 c36 97 114 150 219 151 54 0 73 -5 113 -28 184 -108 158 -384
-42 -452 -56 -19 -97 -19 -152 0 -64 23 -104 59 -134 120 l-27 55 -348 0 -347
0 -7 51 c-9 68 -36 119 -84 160 -39 34 -40 35 -52 138 -45 390 -216 797 -484
1150 -90 118 -176 212 -186 206 -5 -3 -12 0 -16 6 -4 8 -3 9 4 5 7 -4 12 -3
12 1 0 16 -107 114 -120 111 -8 -2 -14 4 -15 12 -1 8 -7 14 -14 12 -7 -1 -10
1 -7 6 11 18 -166 168 -186 156 -7 -4 -10 -4 -6 1 8 8 -50 65 -67 65 -5 0 -3
-5 5 -11 13 -9 13 -10 0 -6 -8 2 -15 9 -15 14 0 20 -16 28 -26 13 -9 -13 -10
-12 -5 2 3 12 -9 25 -45 48 -28 17 -55 27 -61 24 -6 -4 -8 -3 -5 3 8 13 -20
26 -35 16 -6 -3 -8 -1 -4 5 9 15 -13 26 -46 24 -15 -1 -28 2 -28 8 0 5 8 7 18
3 32 -11 8 4 -48 31 -30 15 -46 20 -36 11 26 -20 -1 -20 -28 0 -15 11 -16 15
-5 16 8 0 -4 9 -26 19 -39 18 -61 18 -49 -1 3 -5 10 -7 15 -4 5 4 17 1 26 -4
17 -10 16 -11 -2 -12 -11 -1 -23 -1 -27 0 -4 0 -5 -9 -3 -20 3 -15 0 -19 -10
-15 -9 3 -19 -4 -26 -17 -12 -20 -12 -21 -19 -3 -7 21 10 67 22 60 5 -3 8 -1
8 5 0 5 -9 9 -19 8 -11 -1 -17 -6 -14 -14 3 -7 0 -19 -6 -27 -6 -7 -8 -22 -5
-32 6 -16 5 -17 -7 -6 -19 18 -33 15 -15 -4 9 -8 20 -13 25 -10 10 6 21 -16
21 -40 0 -11 -7 -14 -22 -9 -13 3 24 -19 82 -48 82 -43 107 -51 113 -40 4 7 5
18 2 23 -8 13 -35 13 -35 0 0 -5 -7 -7 -15 -4 -8 4 -12 11 -8 17 4 6 0 8 -9 4
-9 -3 -24 0 -34 8 -11 7 -22 13 -26 14 -26 5 -34 16 -36 46 -2 32 0 35 23 35
15 0 24 4 21 9 -3 5 0 11 8 14 8 3 17 -1 20 -9 3 -8 11 -13 18 -12 13 3 19
-38 9 -57 -11 -20 -9 -35 5 -35 8 0 14 -4 14 -8 0 -4 21 -7 48 -6 26 1 42 -1
35 -3 -7 -2 -9 -12 -6 -21 4 -13 3 -14 -5 -4 -7 11 -10 11 -15 -1 -7 -19 23
-32 35 -15 6 9 8 7 6 -7 -2 -15 2 -19 17 -17 16 2 17 1 5 -7 -10 -7 -21 -6
-37 4 -12 8 -26 15 -30 15 -4 0 6 -9 22 -20 17 -11 36 -18 43 -15 18 7 62 -12
62 -27 0 -9 -3 -8 -10 2 -5 8 -10 11 -10 6 0 -5 -7 -3 -15 4 -8 7 -15 8 -15 3
0 -10 111 -79 122 -75 4 1 7 -2 6 -7 -2 -4 21 -26 50 -49 30 -22 95 -78 145
-123 50 -46 98 -83 106 -82 11 2 12 1 3 -3 -10 -5 -6 -14 14 -35 15 -15 32
-25 38 -22 6 3 8 2 3 -2 -10 -11 33 -56 46 -48 6 3 7 1 3 -6 -8 -13 73 -108
87 -103 5 1 6 -2 3 -7 -3 -4 16 -37 42 -72 227 -301 378 -659 428 -1016 l17
-122 -40 -45 c-40 -45 -63 -105 -63 -160 l0 -26 -98 0 -99 0 -6 133 c-22 480
-217 935 -548 1282 -295 308 -644 504 -1058 592 -118 26 -142 27 -371 27 -225
0 -256 -2 -382 -27 -267 -52 -487 -143 -708 -292 -500 -337 -810 -848 -881
-1449 -19 -161 -7 -472 25 -638 77 -405 269 -755 577 -1053 51 -49 92 -93 91
-97 -1 -5 1 -7 6 -6 14 4 53 -23 47 -33 -4 -5 -1 -8 7 -7 8 2 13 -6 12 -19 0
-17 3 -20 16 -13 24 13 44 -8 27 -29 -10 -12 -9 -13 2 -6 11 6 13 4 8 -9 -5
-13 -3 -17 7 -13 13 5 31 -18 28 -35 -1 -4 4 -5 12 -2 8 3 17 0 21 -5 3 -6 11
-8 17 -5 7 5 8 2 3 -5 -4 -8 1 -19 15 -28 12 -8 19 -21 17 -27 -3 -7 -1 -19 4
-27 6 -10 9 -10 9 -1 0 6 5 12 10 12 6 0 10 -10 10 -21 0 -19 2 -20 17 -8 14
12 16 12 11 -1 -4 -11 1 -16 19 -18 13 -1 34 -13 47 -27 13 -13 26 -22 29 -18
4 3 7 1 7 -5 0 -7 3 -12 8 -11 19 3 52 -15 52 -28 0 -13 3 -13 15 -3 12 10 15
9 16 -6 0 -18 1 -18 8 0 6 16 8 17 13 4 4 -9 2 -20 -3 -25 -5 -5 8 -8 33 -7
42 1 78 -12 78 -30 0 -5 -8 -2 -18 7 -15 14 -19 15 -19 2 0 -8 4 -12 8 -9 4 2
11 0 14 -6 5 -8 11 -7 21 1 10 8 14 8 14 0 0 -17 21 -13 35 6 11 15 12 14 10
-11 -2 -15 -1 -25 2 -22 4 3 13 0 21 -7 13 -10 15 -9 8 3 -4 9 -2 8 7 -2 8
-10 17 -15 20 -11 4 3 19 -7 33 -22 26 -28 26 -28 19 -4 -7 23 -7 23 9 4 13
-17 17 -18 26 -5 7 12 10 12 10 1 0 -7 6 -11 15 -7 8 3 15 1 15 -4 0 -6 -5
-10 -12 -10 -6 0 -8 -3 -5 -6 4 -4 13 -1 21 5 10 9 16 9 21 1 4 -6 13 -9 21
-6 7 3 16 1 19 -4 4 -6 11 -10 16 -10 6 0 7 5 3 12 -4 7 -3 8 4 4 7 -4 12 -15
12 -24 0 -13 2 -13 15 4 15 19 15 19 8 -1 -3 -11 -3 -17 2 -13 4 4 17 1 29 -7
11 -8 27 -15 36 -15 12 1 12 3 -2 11 -10 5 -18 14 -18 20 0 5 11 2 25 -7 13
-8 29 -13 35 -9 5 3 15 -6 20 -21 8 -19 16 -25 30 -21 11 3 25 -2 32 -11 11
-13 10 -15 -4 -9 -10 3 -19 3 -22 -1 -3 -4 5 -9 16 -9 12 -1 25 -7 29 -14 4
-7 8 43 8 111 1 68 2 124 4 125 1 1 23 5 49 8 l48 7 2 -401 c2 -221 0 -403 -4
-405 -14 -9 -346 16 -474 36 -253 38 -431 87 -672 187 -332 137 -622 329 -879
579 -194 190 -314 346 -455 589 -236 406 -346 780 -374 1268 l-6 107 -244 0
-244 0 0 50 0 50 99 0 98 0 7 113 c33 525 183 997 463 1456 85 140 141 216
243 336 432 503 924 825 1525 1000 254 73 454 109 685 123 l125 7 2 125 3 125
-44 26 c-121 73 -111 247 19 331 44 28 130 21 184 -15z m627 -126 c100 -61 68
-215 -47 -228 -84 -10 -139 41 -139 128 0 35 6 48 39 80 32 32 46 39 77 39 22
0 53 -9 70 -19z m-1766 -106 c44 -42 55 -78 41 -127 -18 -57 -45 -80 -141
-117 -46 -18 -119 -50 -161 -72 -99 -49 -143 -57 -186 -30 -44 27 -67 74 -60
123 10 72 39 96 223 180 193 88 231 94 284 43z m2329 -34 c71 -34 133 -61 139
-61 6 0 27 -14 47 -31 65 -58 68 -150 5 -203 -55 -46 -76 -43 -227 23 -76 34
-158 71 -183 83 -103 53 -112 180 -15 240 44 28 87 19 234 -51z m-3169 -306
c0 -3 -16 -11 -36 -20 -72 -30 -164 -113 -164 -149 0 -25 53 -96 72 -96 5 0
16 -7 24 -15 15 -14 79 -15 103 -1 6 4 11 4 11 1 0 -12 -106 -55 -136 -55 -17
0 -46 10 -65 23 -71 48 -71 149 0 217 52 50 191 119 191 95z m3693 -37 c-13
-6 -23 -15 -23 -20 0 -4 -5 -8 -12 -8 -6 0 -3 9 7 20 10 11 25 20 34 19 11 0
9 -4 -6 -11z m197 -13 c79 -41 122 -146 89 -218 -14 -31 -78 -67 -119 -67 -19
0 -63 17 -107 41 l-75 42 4 53 c6 68 42 124 100 152 43 22 60 21 108 -3z
m-3944 -21 c18 -15 18 -15 -3 -5 -28 14 -36 14 -27 -1 4 -7 3 -8 -5 -4 -11 7
-6 26 8 26 4 0 16 -7 27 -16z m-76 -54 c-8 -5 -10 -10 -4 -10 7 0 15 -7 18
-16 6 -14 4 -15 -10 -3 -13 11 -15 11 -12 -2 1 -8 1 -15 -2 -15 -3 0 -14 -6
-26 -12 -19 -10 -21 -9 -16 16 3 15 7 21 9 15 3 -7 9 -13 14 -13 6 0 7 5 4 10
-3 6 -1 10 4 10 6 0 10 3 10 8 -3 15 1 22 14 22 8 0 7 -4 -3 -10z m105 -50 c3
-6 -1 -7 -9 -4 -18 7 -21 14 -7 14 6 0 13 -4 16 -10z m-135 -30 c0 -5 -5 -10
-11 -10 -5 0 -7 5 -4 10 3 6 8 10 11 10 2 0 4 -4 4 -10z m104 -8 c2 -4 -4 -8
-14 -8 -10 0 -16 4 -14 8 3 4 9 8 14 8 5 0 11 -4 14 -8z m-73 -29 c13 -16 12
-17 -3 -4 -10 7 -18 15 -18 17 0 8 8 3 21 -13z m-493 -130 c30 -17 50 -39 68
-75 67 -131 -20 -267 -170 -268 -100 0 -176 77 -176 179 0 64 18 106 61 148
59 56 137 61 217 16z m5186 9 c16 -10 43 -34 60 -55 28 -35 31 -45 31 -111 0
-65 -3 -77 -29 -110 -51 -67 -152 -95 -229 -62 -71 29 -126 129 -111 199 28
132 168 201 278 139z m-1704 -538 c0 -8 -5 -12 -10 -9 -6 4 -8 11 -5 16 9 14
15 11 15 -7z m58 -8 c12 -4 19 -12 16 -18 -4 -7 -2 -8 4 -4 14 8 73 -24 66
-36 -9 -14 14 -9 30 7 13 13 15 13 22 -7 12 -36 13 -48 3 -48 -5 0 -9 -7 -9
-17 0 -14 3 -14 23 3 l22 19 -20 -23 c-16 -19 -17 -25 -6 -32 10 -5 6 -8 -12
-7 -21 2 -23 5 -14 16 10 12 9 13 -7 8 -15 -6 -17 -5 -8 6 7 8 9 17 5 20 -3 4
-1 7 5 7 6 0 10 9 9 20 -2 30 -22 24 -25 -7 -1 -14 -5 -29 -8 -32 -4 -3 -4 6
-2 22 6 29 -3 35 -21 14 -8 -10 -7 -17 2 -26 9 -10 6 -10 -11 0 -19 12 -24 12
-31 0 -10 -15 -41 -8 -41 10 0 6 6 9 13 6 8 -3 14 0 15 6 0 7 3 22 6 35 4 17
0 22 -15 22 -11 0 -24 10 -29 23 -5 12 -9 16 -9 9 -1 -14 -21 -7 -21 8 0 9 12
8 48 -4z m-3901 -28 c51 -47 12 -138 -58 -138 -69 0 -103 77 -58 134 27 34 82
36 116 4z m5808 16 c19 -8 45 -55 45 -84 0 -35 -44 -70 -88 -70 -43 0 -66 19
-77 61 -7 29 15 83 37 92 19 8 64 8 83 1z m-1898 -53 c0 -11 -5 -18 -9 -15 -4
3 -5 11 -1 19 7 21 12 19 10 -4z m173 -26 c11 -13 10 -14 -4 -9 -9 3 -16 10
-16 15 0 13 6 11 20 -6z m90 -43 c3 -2 -6 -1 -19 3 -18 6 -22 4 -16 -6 5 -8 6
-12 2 -9 -3 3 -5 8 -4 12 1 4 -7 14 -18 23 -17 14 -15 14 15 -1 19 -9 37 -19
40 -22z m-96 -4 c-5 -7 -2 -9 8 -5 12 4 14 1 10 -15 -5 -20 -6 -20 -18 -3 -12
16 -11 35 2 35 3 0 2 -5 -2 -12z m38 -30 c-7 -7 -12 -8 -12 -2 0 14 12 26 19
19 2 -3 -1 -11 -7 -17z m-72 -12 c0 -2 -7 -6 -15 -10 -8 -3 -15 -1 -15 4 0 6
7 10 15 10 8 0 15 -2 15 -4z m245 -56 c3 -5 -1 -10 -10 -10 -9 0 -13 5 -10 10
3 6 8 10 10 10 2 0 7 -4 10 -10z m-4718 -6 c-3 -4 -27 -10 -52 -15 -61 -11
-142 -51 -193 -94 -55 -47 -110 -159 -121 -245 l-8 -65 -2 52 c-3 130 80 269
199 334 42 22 195 51 177 33z m6746 -31 c155 -73 247 -241 218 -399 -34 -184
-163 -302 -342 -312 -118 -7 -204 23 -281 95 -99 96 -148 225 -127 340 27 144
131 261 268 300 74 21 189 10 264 -24z m-2183 -8 c24 -13 24 -14 4 -15 -12 0
-27 7 -34 15 -16 19 -3 19 30 0z m230 0 c0 -2 -9 -3 -19 -2 -11 0 -18 5 -15 9
4 6 34 0 34 -7z m-105 -97 c5 4 5 1 1 -6 -6 -10 -11 -10 -22 -1 -8 6 -14 14
-14 16 0 3 6 0 13 -6 8 -6 18 -7 22 -3z m64 -32 c9 -11 9 -16 -1 -22 -7 -4
-10 -4 -6 1 4 4 3 14 -3 22 -6 7 -9 13 -6 13 2 0 10 -6 16 -14z m-1494 -43
c29 -5 34 -8 20 -13 -20 -7 -26 -24 -28 -90 l-2 -45 120 -7 c212 -12 391 -59
605 -159 314 -148 532 -363 694 -686 84 -166 122 -301 144 -505 l8 -78 -133 0
-133 0 0 25 c0 14 -6 25 -12 25 -10 0 -9 3 1 9 7 5 9 11 4 14 -5 3 -8 29 -7
57 1 28 -3 53 -8 56 -5 3 -8 2 -7 -3 1 -4 0 -30 -1 -58 -2 -27 -6 15 -10 95
-12 225 -54 364 -155 515 -101 150 -206 243 -350 311 -171 81 -156 79 -720 79
-492 0 -501 0 -579 -23 -239 -69 -434 -235 -546 -467 -71 -146 -83 -205 -89
-440 l-6 -200 -26 3 c-22 3 -27 -2 -32 -25 -5 -29 2 -48 10 -25 3 6 11 12 19
12 8 0 14 5 14 11 0 5 -4 7 -10 4 -5 -3 -10 -1 -10 5 0 7 6 10 13 8 9 -4 13
-49 15 -174 l2 -170 -82 -17 c-149 -31 -268 -104 -356 -216 l-19 -24 -11 44
c-26 106 -36 223 -34 411 1 166 5 215 26 320 34 168 75 290 145 433 98 200
185 321 345 480 303 302 629 458 1061 509 55 6 80 6 120 -1z m2490 -13 c-3 -5
1 -11 7 -13 8 -3 6 -6 -4 -6 -11 -1 -18 6 -18 17 -1 15 -2 15 -15 -2 -12 -16
-15 -17 -15 -4 0 9 6 18 13 21 16 6 38 -3 32 -13z m-2418 4 c-3 -3 -12 -4 -19
-1 -8 3 -5 6 6 6 11 1 17 -2 13 -5z m91 -1 c-10 -2 -26 -2 -35 0 -10 3 -2 5
17 5 19 0 27 -2 18 -5z m99 -9 c-3 -3 -12 -4 -19 -1 -8 3 -5 6 6 6 11 1 17 -2
13 -5z m2169 -14 c0 -22 -12 -27 -19 -7 -2 6 -8 9 -12 5 -4 -4 0 -19 9 -32 18
-29 20 -36 7 -36 -5 0 -14 14 -21 30 -15 36 -28 39 -26 5 0 -14 4 -25 7 -25 3
0 6 -7 6 -15 0 -12 -3 -12 -17 3 -12 12 -14 19 -6 25 8 6 8 10 -1 13 -7 3 -9
13 -6 22 5 14 3 15 -8 5 -18 -18 -34 -16 -19 2 8 9 22 12 42 8 22 -4 29 -3 24
5 -5 8 1 12 16 12 17 0 24 -6 24 -20z m99 10 c3 -5 1 -10 -4 -10 -6 0 -11 5
-11 10 0 6 2 10 4 10 3 0 8 -4 11 -10z m70 -1 c11 -17 2 -18 -19 -3 -17 12
-17 14 -4 14 9 0 20 -5 23 -11z m-2292 -6 c-7 -2 -19 -2 -25 0 -7 3 -2 5 12 5
14 0 19 -2 13 -5z m2210 -29 c-2 -6 -15 -9 -29 -6 -37 7 -36 17 1 17 19 0 31
-4 28 -11z m-2066 0 c-3 -3 -12 -4 -19 -1 -8 3 -5 6 6 6 11 1 17 -2 13 -5z
m1991 -35 c-3 -8 -7 -3 -11 10 -4 17 -3 21 5 13 5 -5 8 -16 6 -23z m52 12 c0
-6 -4 -12 -8 -15 -5 -3 -9 1 -9 9 0 8 4 15 9 15 4 0 8 -4 8 -9z m-2721 -655
c-2 -2 -60 -7 -129 -11 -137 -8 -185 -20 -275 -70 -90 -50 -238 -207 -221
-234 3 -5 0 -11 -8 -14 -13 -5 -41 -67 -30 -67 3 0 10 13 15 30 6 16 15 27 20
24 5 -3 6 -10 3 -16 -5 -8 -1 -9 10 -5 9 4 15 3 12 -2 -3 -5 1 -14 9 -21 13
-11 15 -9 12 8 -2 11 -9 27 -15 35 -9 11 -10 17 -2 22 6 4 9 1 8 -7 -2 -7 3
-12 10 -10 8 1 11 -2 8 -7 -4 -5 -2 -12 4 -16 5 -3 10 0 10 7 0 9 3 9 10 -2 5
-8 7 -33 5 -55 l-5 -40 22 40 c29 55 122 144 188 180 l55 30 540 0 540 0 58
-27 c54 -25 193 -148 182 -160 -3 -3 1 -11 10 -18 12 -10 15 -10 15 0 0 9 3
10 14 1 11 -9 15 -7 19 8 2 11 0 24 -5 29 -6 6 -6 12 1 17 7 4 10 1 9 -7 -2
-8 5 -12 20 -10 20 3 22 0 17 -27 -3 -18 -1 -31 5 -31 5 0 10 7 10 16 0 9 5
12 13 8 8 -5 7 -2 -2 9 -8 10 -11 20 -8 23 10 11 47 -21 58 -51 17 -45 23
-252 10 -332 -25 -142 -112 -269 -243 -354 -105 -68 -103 -67 -690 -73 -302
-3 -552 -1 -584 4 -166 27 -335 171 -397 337 -29 80 -36 287 -13 387 48 203
219 390 405 442 41 11 311 20 300 10z m-3143 -77 c29 -27 47 -83 41 -124 -4
-27 -4 -26 -6 8 -1 30 -5 37 -21 37 -11 0 -20 4 -20 10 0 15 -55 40 -88 40
-37 0 -74 -29 -98 -77 l-19 -38 -3 34 c-11 117 129 190 214 110z m6960 15 c10
-8 13 -13 7 -9 -16 7 -17 -7 -3 -21 7 -7 -9 -10 -49 -10 -53 1 -63 -2 -90 -28
-17 -17 -31 -36 -31 -43 0 -7 -4 -13 -9 -13 -16 0 7 71 31 97 41 44 107 57
144 27z m-7116 -228 c0 -16 -28 15 -34 37 -5 21 -4 21 14 -3 11 -14 20 -29 20
-34z m4490 -81 c0 -5 -5 -3 -10 5 -5 8 -10 20 -10 25 0 6 5 3 10 -5 5 -8 10
-19 10 -25z m-4519 -232 c13 -16 12 -17 -3 -4 -10 7 -18 15 -18 17 0 8 8 3 21
-13z m6386 -505 c-3 -8 -6 -5 -6 6 -1 11 2 17 5 13 3 -3 4 -12 1 -19z m-30
-340 c-3 -8 -6 -5 -6 6 -1 11 2 17 5 13 3 -3 4 -12 1 -19z m-2643 -249 c64
-23 146 -93 181 -153 49 -85 53 -206 10 -314 -23 -56 -120 -145 -181 -166
-176 -60 -360 36 -425 221 -36 101 -13 229 57 320 77 101 230 140 358 92z
m-619 -8 c111 -50 147 -200 69 -282 l-25 -26 25 -17 c49 -31 74 -110 56 -175
-14 -52 -61 -107 -103 -120 -18 -6 -100 -11 -184 -13 -135 -3 -154 -1 -170 15
-16 16 -18 43 -21 265 -4 274 1 325 29 353 17 17 34 19 152 19 106 0 140 -4
172 -19z m1332 -3 c33 -30 31 -80 -3 -107 -21 -17 -41 -21 -95 -21 l-69 0 0
-235 c0 -222 -1 -236 -20 -255 -24 -24 -77 -26 -102 -3 -16 15 -18 36 -18 255
l0 238 -75 0 c-63 0 -77 3 -95 22 -26 28 -26 82 0 108 19 19 33 20 237 20 209
0 218 -1 240 -22z m-4303 -7 c19 -7 19 -8 -3 -14 -13 -3 -20 -10 -16 -16 4 -7
-3 -11 -18 -11 -33 0 -76 -36 -93 -77 -19 -43 -28 -42 -19 3 11 61 28 86 70
105 44 20 51 21 79 10z m6896 -24 c0 -2 -10 -12 -22 -23 l-23 -19 19 23 c18
21 26 27 26 19z m-6663 -521 c87 -23 137 -53 202 -121 74 -77 137 -205 101
-205 -5 0 -6 7 -3 17 4 11 3 14 -5 9 -6 -4 -10 -21 -8 -39 4 -29 3 -30 -11
-12 -14 19 -15 19 -28 1 -7 -10 -19 -15 -25 -11 -8 5 -8 10 0 20 8 9 5 14 -11
18 -17 5 -20 2 -16 -14 4 -17 3 -18 -9 -8 -11 9 -14 8 -14 -5 0 -9 -4 -16 -10
-16 -5 0 -10 4 -10 8 0 4 -9 8 -19 9 -14 1 -19 -4 -16 -18 2 -10 6 -23 9 -27
2 -4 1 -14 -5 -22 -6 -11 -9 -12 -9 -2 0 7 -4 11 -8 8 -12 -7 -2 96 10 111 14
17 1 77 -20 95 -25 22 -60 28 -90 17 -35 -13 -42 -26 -42 -77 l0 -44 -72 4
-73 3 -3 63 c-3 60 -4 62 -30 61 -85 -2 -137 -56 -122 -126 5 -20 13 -39 18
-42 4 -3 11 -13 15 -21 12 -27 32 -55 45 -63 22 -15 12 -49 -24 -82 -20 -19
-42 -31 -49 -29 -7 3 -16 1 -20 -5 -3 -6 0 -11 8 -11 10 0 13 -7 10 -20 l-6
-21 -14 21 c-14 19 -34 28 -32 13 3 -19 -2 -33 -11 -33 -6 0 -10 7 -8 16 2 10
-4 19 -12 21 -13 4 -13 3 0 -6 12 -8 12 -11 1 -11 -7 0 -11 -6 -8 -13 3 -9 -4
-14 -21 -14 -15 0 -33 -2 -41 -4 -23 -7 -53 95 -53 182 0 125 37 218 127 318
95 105 259 148 412 107z m322 -358 c0 -16 -2 -18 -6 -8 -3 8 -11 18 -17 22 -7
5 -4 8 7 8 11 0 17 -7 16 -22z m-231 -76 c2 -7 8 -10 13 -6 15 9 10 -3 -8 -17
-9 -8 -14 -9 -10 -3 4 7 -1 14 -11 16 -12 3 -22 -3 -29 -18 -11 -25 -5 -32 13
-14 6 6 10 3 11 -10 2 -23 -6 -25 -30 -7 -28 20 -30 57 -4 66 28 11 50 8 55
-7z m2142 -126 c0 -2 -7 -7 -16 -10 -8 -3 -12 -2 -9 4 6 10 25 14 25 6z
m-2355 -43 c-16 -3 -37 -10 -45 -16 -13 -10 -13 -10 -1 6 8 10 25 16 45 16
l31 -2 -30 -4z m-342 -32 c3 -14 1 -18 -9 -14 -15 6 -18 16 -7 26 9 10 10 9
16 -12z m97 9 c0 -5 -12 -10 -27 -9 l-28 1 25 8 c14 4 26 8 28 9 1 1 2 -3 2
-9z m945 -465 c-63 -30 -77 -42 -104 -85 -24 -39 -29 -34 -7 8 20 39 59 72
103 87 59 22 63 16 8 -10z m5354 -10 c43 -29 91 -111 91 -154 0 -76 -53 -161
-117 -187 -65 -28 -152 -13 -207 35 -32 28 -58 91 -58 142 2 155 169 249 291
164z m-4581 -499 c12 -12 25 -38 29 -59 5 -31 1 -40 -25 -67 -61 -60 -152 -26
-152 57 0 90 86 130 148 69z m3845 9 c-2 -5 -15 -10 -31 -11 -16 -1 -39 -5
-53 -8 l-24 -7 24 21 c25 21 89 25 84 5z m-3877 -600 c62 -30 122 -93 161
-167 25 -47 28 -63 28 -148 0 -85 -3 -101 -28 -148 -112 -213 -376 -249 -540
-73 -69 74 -91 128 -91 226 0 67 4 90 27 140 29 63 81 123 133 155 86 54 218
60 310 15z m-693 14 c47 -13 106 -63 123 -106 28 -65 13 -157 -31 -193 -14
-12 -13 -16 14 -44 98 -102 47 -266 -94 -305 -22 -6 -100 -11 -172 -11 -189 0
-173 -30 -173 333 0 160 4 297 8 303 4 6 16 16 27 22 26 15 247 16 298 1z
m1387 -9 c31 -31 36 -68 13 -98 -18 -24 -28 -28 -94 -32 l-74 -5 -5 -236 c-5
-215 -7 -239 -24 -258 -25 -27 -75 -28 -104 -1 -21 20 -22 27 -22 260 l0 240
-79 0 c-71 0 -82 2 -95 22 -22 31 -20 84 4 108 19 19 33 20 240 20 206 0 221
-1 240 -20z m694 -14 c27 -30 92 -164 83 -173 -2 -2 -17 27 -32 64 -47 111
-55 120 -112 114 l-48 -6 -47 -105 c-25 -58 -70 -163 -99 -235 -28 -71 -61
-148 -72 -170 -32 -64 -31 -23 1 52 17 37 58 137 91 221 99 248 113 270 180
271 15 1 36 -12 55 -33z m566 20 c8 -2 -28 -4 -81 -5 -79 -1 -99 -4 -112 -19
-15 -16 -17 -56 -20 -303 l-2 -284 -3 291 c-2 351 -10 333 131 326 40 -2 79
-5 87 -6z m450 9 c0 -3 -11 -10 -25 -15 -14 -5 -30 -20 -35 -32 -10 -23 -10
-23 -7 2 1 15 12 30 27 37 27 14 40 16 40 8z m769 -11 c2 -2 -39 -4 -93 -4
-91 0 -99 -2 -123 -26 -18 -18 -24 -33 -21 -54 2 -16 1 -27 -4 -24 -18 11 -8
75 16 99 23 22 28 23 122 18 55 -3 101 -7 103 -9z m586 -56 c39 -40 90 -95
114 -123 l43 -50 115 123 c95 101 120 122 143 122 57 0 60 -14 60 -331 0 -158
-3 -295 -6 -304 -7 -17 -54 -45 -78 -45 -8 0 -26 10 -41 23 -25 22 -25 25 -29
175 -3 85 -6 156 -9 158 -2 3 -35 -29 -72 -71 -37 -41 -73 -75 -80 -75 -7 0
-47 37 -89 83 l-76 82 0 -160 c0 -174 -6 -197 -55 -209 -27 -7 -62 7 -82 33
-9 12 -12 94 -13 306 0 247 2 294 16 313 28 41 61 29 139 -50z m1030 66 c24
-9 46 -60 39 -89 -11 -45 -28 -50 -188 -55 l-151 -5 -3 -52 -3 -53 115 0 c103
0 118 -2 136 -20 11 -11 20 -33 20 -50 0 -45 -31 -70 -87 -70 -27 0 -78 -3
-115 -7 l-68 -6 0 -53 0 -54 144 0 c79 0 152 -3 161 -6 8 -4 23 -20 31 -36 13
-25 13 -35 3 -59 -6 -17 -20 -34 -30 -39 -10 -6 -106 -10 -214 -10 -195 0
-196 0 -220 25 l-25 24 0 284 c0 296 1 301 45 325 21 12 381 17 410 6z m-1991
-11 c-58 -7 -63 -23 -67 -188 l-3 -150 -2 154 c-2 177 3 192 67 189 35 -1 36
-1 5 -5z m-738 -238 c-15 -23 -22 -25 -91 -25 -96 0 -98 18 -2 22 l72 3 10 33
c9 31 10 32 19 13 6 -14 4 -28 -8 -46z m-566 0 c0 -5 -5 -3 -10 5 -5 8 -10 20
-10 25 0 6 5 3 10 -5 5 -8 10 -19 10 -25z m-131 -20 c0 -5 -4 -3 -9 5 -5 8 -9
22 -9 30 0 16 17 -16 18 -35z m1758 -22 c-3 -10 -5 -2 -5 17 0 19 2 27 5 18 2
-10 2 -26 0 -35z m-2225 -50 c32 -29 41 -68 23 -103 -30 -58 -102 -70 -146
-24 -74 79 42 200 123 127z m2225 -85 c-2 -13 -4 -5 -4 17 -1 22 1 32 4 23 2
-10 2 -28 0 -40z m-414 -31 c-10 -17 -35 -41 -55 -51 -30 -17 -40 -18 -69 -8
-19 6 -24 10 -11 8 59 -11 140 45 143 97 1 18 2 18 6 4 2 -9 -4 -32 -14 -50z
m-1309 40 c-5 -13 -26 -14 -117 -9 -58 4 -13 22 53 22 54 0 68 -3 64 -13z
m676 -82 c-7 -8 -17 -15 -23 -15 -5 0 -3 8 6 18 10 10 18 25 18 33 1 8 3 7 6
-4 3 -10 -1 -24 -7 -32z m1047 -17 c-3 -8 -6 -5 -6 6 -1 11 2 17 5 13 3 -3 4
-12 1 -19z m-1109 -5 c-10 -2 -26 -2 -35 0 -10 3 -2 5 17 5 19 0 27 -2 18 -5z
m-1098 -443 c20 -5 51 -26 70 -46 22 -23 28 -35 17 -31 -22 8 -34 -17 -18 -36
8 -10 7 -14 -4 -14 -9 0 -15 10 -15 25 0 14 -3 22 -7 19 -3 -4 -13 -1 -21 6
-12 9 -14 9 -9 0 5 -8 -1 -15 -18 -19 -19 -5 -24 -11 -20 -23 4 -10 -1 -8 -15
7 -23 24 -35 28 -45 12 -3 -5 -17 -10 -31 -10 -17 0 -23 -4 -18 -12 5 -8 2 -9
-9 -5 -13 5 -17 1 -17 -18 0 -14 -5 -25 -11 -25 -7 0 -9 10 -7 24 4 17 1 23
-9 19 -7 -3 -13 1 -13 8 0 7 -3 9 -6 6 -4 -4 -2 -12 4 -20 7 -8 7 -18 2 -27
-8 -12 -10 -11 -11 5 -1 11 -5 2 -9 -20 l-7 -40 -2 43 c-2 72 40 136 109 166
41 18 72 19 120 6z m1511 -18 c122 -64 132 -223 18 -299 -34 -22 -54 -28 -99
-28 -195 0 -249 261 -70 339 52 22 91 19 151 -12z m363 1 c-55 -32 -61 -38
-83 -73 -11 -19 -21 -30 -21 -25 0 37 81 115 120 115 8 0 1 -8 -16 -17z
m-1509 -5 c-11 -6 -31 -20 -45 -32 -14 -11 -11 -6 7 12 18 17 38 32 45 32 7 0
4 -6 -7 -12z m-259 -85 c-3 -8 -1 -11 4 -8 12 7 13 -15 2 -33 -6 -8 -13 -1
-25 23 -21 45 -21 44 4 38 12 -4 18 -11 15 -20z m-166 -2 c0 -10 -30 -25 -44
-22 -5 1 -4 -4 2 -12 9 -10 9 -14 -1 -14 -7 0 -14 9 -14 19 -1 12 5 18 18 18
10 0 19 5 19 10 0 6 5 10 10 10 6 0 10 -4 10 -9z m100 -25 c0 -3 -7 -3 -15 0
-9 4 -15 0 -15 -9 0 -8 -7 -18 -16 -21 -13 -5 -14 -4 -6 7 7 8 9 17 5 20 -3 4
-1 7 5 7 7 0 12 7 12 16 0 14 2 14 15 0 8 -8 15 -17 15 -20z m-79 -29 c-10 -9
-11 -8 -5 6 3 10 9 15 12 12 3 -3 0 -11 -7 -18z"/>
<path d="M5940 7865 c14 -8 30 -14 35 -14 6 0 -1 6 -15 14 -14 8 -29 14 -35
14 -5 0 1 -6 15 -14z"/>
<path d="M5875 7767 c-9 -19 -8 -22 12 -23 13 -1 23 2 23 8 0 5 5 6 10 3 16
-10 11 1 -7 16 -10 8 -14 9 -10 2 4 -6 3 -14 -2 -17 -5 -4 -11 3 -13 14 -3 19
-3 19 -13 -3z"/>
<path d="M5770 7740 c8 -5 20 -10 25 -10 6 0 3 5 -5 10 -8 5 -19 10 -25 10 -5
0 -3 -5 5 -10z"/>
<path d="M6065 7718 c-4 -9 -13 -14 -21 -11 -8 3 -14 0 -14 -7 0 -6 4 -9 9 -6
9 6 24 -21 17 -32 -2 -4 6 -15 18 -24 18 -13 23 -14 23 -2 0 8 -4 14 -8 14 -4
0 -10 7 -13 16 -4 12 -2 15 9 10 8 -3 15 -1 15 4 0 6 -7 10 -15 10 -8 0 -15 4
-15 9 0 5 9 7 20 4 12 -3 20 0 20 6 0 7 -5 9 -11 5 -6 -3 -15 0 -20 7 -6 11
-9 10 -14 -3z"/>
<path d="M5850 7716 c0 -2 7 -7 16 -10 8 -3 12 -2 9 4 -6 10 -25 14 -25 6z"/>
<path d="M6934 7476 c-60 -26 -78 -78 -49 -140 33 -68 109 -85 156 -35 53 57
35 145 -37 175 -39 16 -32 16 -70 0z"/>
<path d="M7440 7486 c0 -2 7 -7 16 -10 8 -3 12 -2 9 4 -6 10 -25 14 -25 6z"/>
<path d="M7495 7440 c-3 -5 -1 -10 4 -10 6 0 11 5 11 10 0 6 -2 10 -4 10 -3 0
-8 -4 -11 -10z"/>
<path d="M7515 7420 c-3 -5 -1 -10 4 -10 6 0 11 5 11 10 0 6 -2 10 -4 10 -3 0
-8 -4 -11 -10z"/>
<path d="M7390 7411 c0 -6 4 -13 10 -16 6 -3 7 1 4 9 -7 18 -14 21 -14 7z"/>
<path d="M7450 7381 c0 -5 5 -13 10 -16 6 -3 10 -2 10 4 0 5 -4 13 -10 16 -5
3 -10 2 -10 -4z"/>
<path d="M7488 7364 c6 -3 13 -15 13 -27 1 -17 2 -18 6 -4 2 9 11 17 19 17 29
0 13 16 -18 17 -18 1 -27 -1 -20 -3z"/>
<path d="M7360 7355 c0 -8 27 -35 34 -35 14 0 4 20 -14 30 -11 6 -20 8 -20 5z"/>
<path d="M7460 7346 c0 -2 7 -6 15 -10 8 -3 15 -1 15 4 0 6 -7 10 -15 10 -8 0
-15 -2 -15 -4z"/>
<path d="M7290 7320 c-11 -7 -11 -10 -2 -10 7 0 10 -5 7 -10 -4 -6 -1 -9 6 -8
7 2 13 -6 14 -16 0 -20 25 -36 25 -17 0 6 -4 11 -10 11 -5 0 -7 6 -4 13 8 21
-19 48 -36 37z"/>
<path d="M7345 7300 c-2 -3 5 -7 16 -7 10 -1 19 2 19 6 0 9 -29 10 -35 1z"/>
<path d="M2633 5763 c-34 -7 -114 -83 -134 -128 -37 -81 -15 -170 58 -236 39
-35 40 -37 52 -140 43 -357 157 -694 329 -973 161 -261 356 -492 560 -661 41
-34 70 -66 67 -73 -3 -7 0 -10 6 -7 6 4 13 -2 16 -13 2 -11 15 -25 28 -32 13
-7 26 -21 28 -32 4 -12 12 -18 24 -16 10 2 17 -2 15 -9 -1 -7 3 -13 9 -13 6 0
9 -7 5 -15 -7 -19 -1 -19 19 1 15 16 16 16 13 0 -2 -13 14 -27 57 -50 33 -18
61 -40 63 -49 2 -10 8 -17 13 -17 6 0 7 5 3 11 -3 6 6 3 22 -7 15 -11 29 -18
31 -16 2 1 6 2 11 1 4 0 -2 -4 -13 -9 -18 -8 -18 -9 -2 -9 11 -1 15 -6 11 -12
-4 -7 1 -7 16 1 15 8 20 8 16 1 -5 -7 2 -11 16 -11 18 0 20 -2 9 -9 -12 -8 -9
-11 12 -16 15 -4 27 -11 27 -15 0 -15 33 -21 42 -8 6 9 7 5 3 -9 -5 -18 -3
-22 9 -17 9 3 16 1 16 -6 0 -6 5 -8 10 -5 6 3 13 -1 16 -10 4 -9 13 -14 21
-11 8 3 12 2 10 -2 -2 -4 4 -15 15 -24 10 -10 18 -13 18 -7 0 7 10 5 25 -5 18
-12 25 -13 26 -4 0 7 5 3 11 -9 10 -21 51 -39 67 -28 5 2 14 -1 20 -9 7 -8 21
-12 31 -9 12 3 22 -1 26 -11 3 -9 10 -16 16 -16 5 0 6 5 2 12 -5 7 -3 8 5 4 7
-5 10 -14 7 -21 -6 -17 21 -28 30 -13 4 7 3 8 -4 4 -7 -4 -12 -2 -12 3 0 6 4
11 9 11 14 0 32 -26 23 -35 -4 -4 3 -3 15 4 17 8 25 8 35 -2 7 -8 19 -12 26
-9 6 2 12 -2 12 -8 0 -7 7 -10 16 -6 9 4 23 1 31 -6 11 -9 17 -9 24 3 8 10 9
8 4 -9 l-7 -24 28 19 c17 11 25 13 20 4 -7 -10 -4 -12 13 -6 11 3 21 2 21 -3
0 -6 10 -8 21 -5 18 5 20 3 15 -14 -5 -14 -1 -23 10 -27 9 -4 19 -4 22 -1 3 3
0 5 -6 5 -7 0 -12 5 -12 10 0 14 16 12 32 -3 8 -9 21 -11 33 -7 25 9 55 -6 55
-27 0 -12 8 -15 38 -10 20 3 32 3 26 1 -7 -3 -9 -15 -6 -26 5 -21 6 -21 13 -2
6 17 7 16 14 -7 4 -18 15 -29 31 -32 26 -5 30 4 13 35 -8 14 -8 18 0 14 6 -4
15 -21 20 -39 6 -22 9 44 10 211 1 201 -1 242 -13 242 -27 0 -300 30 -362 40
-360 58 -794 272 -1089 537 -191 173 -403 444 -523 673 -121 229 -206 505
-231 754 l-10 100 36 35 c69 67 83 158 38 248 -47 94 -136 137 -242 116z"/>
<path d="M3906 3893 c-6 -14 -5 -15 5 -6 7 7 10 15 7 18 -3 3 -9 -2 -12 -12z"/>
<path d="M3152 3807 c-83 -46 -68 -171 22 -196 49 -12 85 5 108 54 25 51 19
85 -22 126 -31 32 -69 37 -108 16z"/>
<path d="M4820 2879 c0 -5 5 -7 10 -4 6 3 10 8 10 11 0 2 -4 4 -10 4 -5 0 -10
-5 -10 -11z"/>
<path d="M4900 2839 c0 -5 5 -7 10 -4 6 3 10 8 10 11 0 2 -4 4 -10 4 -5 0 -10
-5 -10 -11z"/>
<path d="M7158 8493 c7 -3 16 -2 19 1 4 3 -2 6 -13 5 -11 0 -14 -3 -6 -6z"/>
<path d="M6166 7711 c-4 -6 0 -14 9 -17 14 -6 14 -8 -2 -20 -16 -12 -16 -13
-2 -14 24 0 40 23 29 40 -6 8 -10 11 -10 5 0 -5 -4 -4 -9 4 -6 9 -11 10 -15 2z"/>
<path d="M3764 5709 c-4 -7 -3 -9 4 -5 5 3 13 0 15 -6 4 -9 6 -10 6 -1 1 17
-16 25 -25 12z"/>
<path d="M3677 5703 c-4 -3 -7 -11 -7 -17 0 -6 5 -5 12 2 6 6 9 14 7 17 -3 3
-9 2 -12 -2z"/>
<path d="M3730 5700 c0 -5 5 -10 10 -10 6 0 10 5 10 10 0 6 -4 10 -10 10 -5 0
-10 -4 -10 -10z"/>
<path d="M3841 5434 c0 -11 3 -14 6 -6 3 7 2 16 -1 19 -3 4 -6 -2 -5 -13z"/>
<path d="M5940 6181 c0 -6 4 -12 8 -15 5 -3 9 1 9 9 0 8 -4 15 -9 15 -4 0 -8
-4 -8 -9z"/>
<path d="M4151 6144 c0 -11 3 -14 6 -6 3 7 2 16 -1 19 -3 4 -6 -2 -5 -13z"/>
<path d="M5930 6150 c0 -5 5 -10 11 -10 5 0 7 5 4 10 -3 6 -8 10 -11 10 -2 0
-4 -4 -4 -10z"/>
<path d="M6005 6150 c-3 -5 -1 -10 4 -10 6 0 11 5 11 10 0 6 -2 10 -4 10 -3 0
-8 -4 -11 -10z"/>
<path d="M5940 6121 c0 -6 4 -12 8 -15 5 -3 9 1 9 9 0 8 -4 15 -9 15 -4 0 -8
-4 -8 -9z"/>
<path d="M6016 6121 c-3 -5 1 -11 9 -14 9 -4 12 -1 8 9 -6 16 -10 17 -17 5z"/>
<path d="M4517 6076 c-48 -18 -62 -29 -81 -70 -47 -100 19 -216 122 -216 62 0
108 29 132 83 25 54 25 81 0 132 -32 66 -104 96 -173 71z"/>
<path d="M5570 6079 c-83 -33 -121 -126 -84 -205 39 -83 132 -110 205 -61 47
30 82 101 74 147 -17 92 -114 151 -195 119z"/>
<path d="M4873 5975 c-32 -22 -38 -66 -15 -117 45 -102 171 -162 288 -138 109
23 193 109 194 196 0 43 -9 57 -48 69 -18 5 -32 -3 -75 -49 -57 -60 -103 -79
-159 -67 -36 8 -78 31 -78 43 0 10 -66 78 -76 78 -5 0 -19 -7 -31 -15z"/>
<path d="M5055 4725 c-50 -18 -100 -73 -113 -128 -32 -126 78 -246 203 -223
43 8 113 68 132 113 40 98 -22 212 -132 242 -48 13 -41 13 -90 -4z"/>
<path d="M4402 4678 l3 -53 64 3 c70 2 91 13 91 46 -1 43 -22 56 -94 56 l-67
0 3 -52z"/>
<path d="M4410 4425 l0 -55 70 0 c58 0 71 3 80 19 30 58 -2 91 -88 91 l-62 0
0 -55z"/>
<path d="M2110 4000 c0 -5 5 -10 11 -10 5 0 7 5 4 10 -3 6 -8 10 -11 10 -2 0
-4 -4 -4 -10z"/>
<path d="M1983 3985 c0 -8 4 -12 9 -9 5 3 6 10 3 15 -9 13 -12 11 -12 -6z"/>
<path d="M1541 3813 c-1 -17 16 -25 25 -12 4 7 3 9 -4 5 -5 -3 -13 0 -15 6 -4
9 -6 10 -6 1z"/>
<path d="M1351 3744 c0 -11 3 -14 6 -6 3 7 2 16 -1 19 -3 4 -6 -2 -5 -13z"/>
<path d="M1412 3740 c0 -14 2 -19 5 -12 2 6 2 18 0 25 -3 6 -5 1 -5 -13z"/>
<path d="M1366 3711 c-4 -5 3 -7 14 -4 23 6 26 13 6 13 -8 0 -17 -4 -20 -9z"/>
<path d="M2962 1973 c-65 -32 -109 -121 -97 -193 8 -49 54 -114 96 -135 39
-21 108 -21 146 -1 44 22 91 80 103 126 37 136 -121 266 -248 203z"/>
<path d="M2307 1983 c-4 -3 -7 -28 -7 -55 l0 -48 65 0 c52 0 69 4 85 20 24 24
25 38 4 68 -13 19 -24 22 -78 22 -34 0 -66 -3 -69 -7z"/>
<path d="M2300 1675 l0 -55 71 0 c86 0 109 11 109 50 0 47 -22 60 -106 60
l-74 0 0 -55z"/>
</g>
</svg>
